#N canvas 41 132 829 611 12;
#X floatatom 210 126 5 0 0 0 - - -;
#X obj 162 295 list prepend send;
#X obj 162 333 list trim;
#X obj 162 473 netsend -u -b;
#X msg 209 432 disconnect;
#X obj 225 216 oscparse;
#X floatatom 162 520 5 0 0 0 - - -;
#X text 233 514 1 = conexión abierta 0 = conexión cerrada;
#X obj 225 253 print osc debug;
#X msg 207 390 connect 192.168.1.5 9129;
#X text 260 123 <- variable a enviar;
#X floatatom 81 125 5 0 0 0 - - -;
#X text 422 206 <- le da formato al mensaje OSC y especifica el nombre
del canal por el cual se envia la data;
#X text 415 391 <- indicar ip del server que recibirá los datos;
#X text 76 94 frecuencia;
#X text 206 92 amplitud;
#X obj 81 164 oscformat /frec;
#X obj 209 165 oscformat /amp;
#X text 85 36 Usa este patch para enviar datos desde PureData a otro
computador en la red mediante el protocolo OSC;
#X connect 0 0 17 0;
#X connect 1 0 2 0;
#X connect 2 0 3 0;
#X connect 3 0 6 0;
#X connect 4 0 3 0;
#X connect 5 0 8 0;
#X connect 9 0 3 0;
#X connect 11 0 16 0;
#X connect 16 0 1 0;
#X connect 16 0 5 0;
#X connect 17 0 1 0;
#X connect 17 0 5 0;
